<svg width="210" height="82" viewBox="0 0 210 82" fill="none" xmlns="http://www.w3.org/2000/svg">
<path fill-rule="evenodd" clip-rule="evenodd" d="M34.3975 0.510254L35.8083 1.08415L55.3734 9.04314L56.9314 9.67692V11.3589V40.1447L69.2669 44.8377L70.8779 45.4507V47.1743V76.5103H209.198V81.5103H68.3779H65.8779V79.0103V48.898L56.9314 45.4943V79.0103V81.5103H54.4314H47.4582H44.9582V79.0103V39.2153V35.5894L48.3471 36.8787L51.9314 38.2424V13.0408L35.335 6.28949L28.0686 12.5097V30.4516L31.5581 28.958L35.0419 27.467V31.2564V79.0103V81.5103H32.5419H25.5686H23.0686V79.0103V38.0304L16.4465 40.8647V79.0103V81.5103H13.9465H0V76.5103H11.4465V39.2153V37.566L12.9628 36.917L23.0686 32.5916V11.3589V10.208L23.9428 9.45967L33.2405 1.50068L34.3975 0.510254ZM28.0686 35.8903V76.5103H30.0418V35.0457L28.0686 35.8903ZM51.9314 43.592L49.9582 42.8413V76.5103H51.9314V43.592ZM44.3395 11.3589V12.3537H39.3395V11.3589H44.3395ZM44.3395 13.3486V15.3384L48.9884 15.3384V16.3332L44.3395 16.3332V17.3281H48.9884V19.3179L44.3395 19.3179V20.3127H48.9884V22.3025H44.3395V23.2974H48.9884V25.2871H44.3395V26.282H48.9884V28.2717L44.3395 28.2717V29.2666H48.9884V31.2564H43.9884V29.2666H39.3395V28.2717L43.9884 28.2717V27.2769H39.3395V25.2871H43.9884V24.2922H39.3395V22.3025H43.9884V21.3076H39.3395V19.3179L43.9884 19.3179V18.323H39.3395V16.3332L43.9884 16.3332V15.3384L39.3395 15.3384V13.3486H44.3395ZM48.9884 33.2461V32.2512H43.9884V33.2461H48.9884Z" fill="#2A4476"/>
</svg>
