<svg width="226" height="54" viewBox="0 0 226 54" fill="none" xmlns="http://www.w3.org/2000/svg">
<path d="M6.83124 38.1562C6.83124 35.4688 8.40936 33.4062 11.5656 31.9688C14.7219 30.5 18.8469 29.7656 23.9406 29.7656C29.0656 29.7656 33.2062 30.5 36.3625 31.9688C39.5187 33.4062 41.0969 35.4688 41.0969 38.1562C41.0969 40.8438 39.5031 42.9062 36.3156 44.3438C33.1594 45.8125 29.0344 46.5469 23.9406 46.5469C18.8469 46.5469 14.7219 45.8125 11.5656 44.3438C8.40936 42.9062 6.83124 40.8438 6.83124 38.1562ZM14.2844 38.1562C14.2844 40.25 17.5031 41.2969 23.9406 41.2969C26.9094 41.2969 29.2687 41.0312 31.0187 40.5C32.7687 39.9375 33.6437 39.1562 33.6437 38.1562C33.6437 36.0312 30.4094 34.9688 23.9406 34.9688C17.5031 34.9688 14.2844 36.0312 14.2844 38.1562ZM26.3781 22.125V16.0312H33.3156V0.9375H40.2062V30.0469H33.3156V22.125H26.3781ZM7.39374 6.75V1.40625H23.8469V6.75H7.39374ZM0.315613 25.9219C3.25311 24.7969 5.83124 23.3438 8.04999 21.5625C10.3 19.7812 11.4875 17.9844 11.6125 16.1719L11.6594 14.5781H2.23749V9.23438H28.2531V14.5781H19.3469V16.0312C19.5031 17.6875 20.5812 19.2969 22.5812 20.8594C24.5812 22.4219 26.7531 23.6719 29.0969 24.6094L25.5344 28.8281C23.9094 28.2344 22.1125 27.3281 20.1437 26.1094C18.2062 24.8594 16.7062 23.625 15.6437 22.4062C14.4875 23.9062 12.8312 25.375 10.675 26.8125C8.54999 28.25 6.39374 29.3906 4.20624 30.2344L0.315613 25.9219ZM56.4344 36.0938V30.4688H88.8719V46.4062H82.1688V36.0938H56.4344ZM82.0281 28.7344V0.9375H88.8719V6.98438H94.2625V12.375H88.8719V18.2344H94.2625V23.6719H88.8719V28.7344H82.0281ZM51.4656 14.0156C51.4656 10.5469 52.6531 7.75 55.0281 5.625C57.4031 3.46875 60.45 2.39062 64.1688 2.39062C67.8875 2.39062 70.9344 3.46875 73.3094 5.625C75.6844 7.75 76.8719 10.5469 76.8719 14.0156C76.8719 17.5469 75.6844 20.375 73.3094 22.5C70.9344 24.5938 67.8875 25.6406 64.1688 25.6406C60.4188 25.6406 57.3563 24.5938 54.9813 22.5C52.6375 20.375 51.4656 17.5469 51.4656 14.0156ZM58.3094 14.0156C58.3094 15.8594 58.8406 17.3594 59.9031 18.5156C60.9656 19.6719 62.3875 20.25 64.1688 20.25C65.95 20.25 67.3719 19.6719 68.4344 18.5156C69.4969 17.3594 70.0281 15.8594 70.0281 14.0156C70.0281 12.1719 69.4813 10.6719 68.3875 9.51562C67.325 8.32812 65.9188 7.73438 64.1688 7.73438C62.4188 7.73438 60.9969 8.32812 59.9031 9.51562C58.8406 10.6719 58.3094 12.1719 58.3094 14.0156ZM111.064 53.52L119.128 15.456H126.376L126.088 18.432H126.28C127.016 17.312 127.864 16.464 128.824 15.888C129.816 15.28 130.984 14.976 132.328 14.976C134.696 14.976 136.584 15.824 137.992 17.52C139.432 19.216 140.152 21.632 140.152 24.768C140.152 26.976 139.864 29.136 139.288 31.248C138.744 33.328 137.96 35.216 136.936 36.912C135.912 38.608 134.664 39.968 133.192 40.992C131.72 41.984 130.072 42.48 128.248 42.48C127.064 42.48 126.024 42.176 125.128 41.568C124.232 40.928 123.464 40.096 122.824 39.072H122.632C122.536 40.32 122.408 41.552 122.248 42.768C122.088 44.016 121.784 45.68 121.336 47.76L120.136 53.52H111.064ZM126.424 35.184C127.256 35.184 128.008 34.704 128.68 33.744C129.352 32.784 129.88 31.568 130.264 30.096C130.68 28.624 130.888 27.136 130.888 25.632C130.888 23.392 130.216 22.272 128.872 22.272C128.168 22.272 127.544 22.576 127 23.184C126.456 23.792 125.976 24.576 125.56 25.536C125.176 26.496 124.872 27.536 124.648 28.656C124.456 29.744 124.36 30.8 124.36 31.824C124.36 32.816 124.536 33.632 124.888 34.272C125.272 34.88 125.784 35.184 126.424 35.184ZM154.045 42.48C152.701 42.48 151.453 42.16 150.301 41.52C149.149 40.88 148.221 39.824 147.517 38.352C146.845 36.88 146.509 34.88 146.509 32.352C146.509 31.072 146.653 29.648 146.941 28.08C147.261 26.512 147.725 24.96 148.333 23.424C148.941 21.888 149.709 20.48 150.637 19.2C151.597 17.92 152.717 16.896 153.997 16.128C155.277 15.36 156.717 14.976 158.317 14.976C159.821 14.976 161.053 15.328 162.013 16.032C163.005 16.704 163.821 17.6 164.461 18.72H164.653L165.901 15.456H173.149L167.533 42H160.285L160.525 39.12H160.333C159.629 40.112 158.797 40.928 157.837 41.568C156.877 42.176 155.613 42.48 154.045 42.48ZM157.789 35.184C158.493 35.184 159.117 34.88 159.661 34.272C160.237 33.632 160.733 32.816 161.149 31.824C161.565 30.8 161.869 29.712 162.061 28.56C162.125 28.08 162.189 27.6 162.253 27.12C162.317 26.608 162.349 26.112 162.349 25.632C162.349 24.608 162.189 23.792 161.869 23.184C161.549 22.576 161.069 22.272 160.429 22.272C159.597 22.272 158.829 22.752 158.125 23.712C157.421 24.672 156.845 25.888 156.397 27.36C155.981 28.8 155.773 30.288 155.773 31.824C155.773 34.064 156.445 35.184 157.789 35.184ZM185.169 42.48C183.409 42.48 181.825 42.352 180.417 42.096C179.041 41.84 177.841 41.472 176.817 40.992V33.696C178.257 34.496 179.585 35.056 180.801 35.376C182.049 35.664 183.313 35.808 184.593 35.808C184.977 35.808 185.409 35.776 185.889 35.712C186.401 35.616 186.833 35.456 187.185 35.232C187.569 35.008 187.761 34.656 187.761 34.176C187.761 33.824 187.681 33.504 187.521 33.216C187.361 32.928 187.025 32.592 186.513 32.208C186.001 31.824 185.201 31.344 184.113 30.768C182.449 29.84 181.233 28.8 180.465 27.648C179.729 26.464 179.361 25.04 179.361 23.376C179.361 20.88 180.241 18.864 182.001 17.328C183.793 15.76 186.545 14.976 190.257 14.976C191.985 14.976 193.569 15.184 195.009 15.6C196.481 16.016 197.889 16.64 199.233 17.472L196.401 23.376C195.505 22.8 194.497 22.288 193.377 21.84C192.289 21.392 191.281 21.168 190.353 21.168C189.169 21.168 188.577 21.696 188.577 22.752C188.577 23.2 188.817 23.6 189.297 23.952C189.809 24.304 190.609 24.752 191.697 25.296C195.217 27.024 196.977 29.52 196.977 32.784C196.977 36.08 195.905 38.528 193.761 40.128C191.649 41.696 188.785 42.48 185.169 42.48ZM211.663 42.48C209.903 42.48 208.319 42.352 206.911 42.096C205.535 41.84 204.335 41.472 203.311 40.992V33.696C204.751 34.496 206.079 35.056 207.295 35.376C208.543 35.664 209.807 35.808 211.087 35.808C211.471 35.808 211.903 35.776 212.383 35.712C212.895 35.616 213.327 35.456 213.679 35.232C214.063 35.008 214.255 34.656 214.255 34.176C214.255 33.824 214.175 33.504 214.015 33.216C213.855 32.928 213.519 32.592 213.007 32.208C212.495 31.824 211.695 31.344 210.607 30.768C208.943 29.84 207.727 28.8 206.959 27.648C206.223 26.464 205.855 25.04 205.855 23.376C205.855 20.88 206.735 18.864 208.495 17.328C210.287 15.76 213.039 14.976 216.751 14.976C218.479 14.976 220.063 15.184 221.503 15.6C222.975 16.016 224.383 16.64 225.727 17.472L222.895 23.376C221.999 22.8 220.991 22.288 219.871 21.84C218.783 21.392 217.775 21.168 216.847 21.168C215.663 21.168 215.071 21.696 215.071 22.752C215.071 23.2 215.311 23.6 215.791 23.952C216.303 24.304 217.103 24.752 218.191 25.296C221.711 27.024 223.471 29.52 223.471 32.784C223.471 36.08 222.399 38.528 220.255 40.128C218.143 41.696 215.279 42.48 211.663 42.48Z" fill="#2A4476"/>
</svg>
